<svg fill="none" height="12" viewBox="0 0 12 12" width="12" xmlns="http://www.w3.org/2000/svg"><path d="m10.125 7.5h-.75c-.09946 0-.19484.03951-.26517.10983-.07032.07033-.10983.16571-.10983.26517v2.625h-7.5v-7.5h3.375c.09946 0 .19484-.03951.26516-.10984.07033-.07032.10984-.1657.10984-.26516v-.75c0-.09946-.03951-.19484-.10984-.26516-.07032-.07033-.1657-.10984-.26516-.10984h-3.75c-.298369 0-.584517.11853-.795495.3295-.210979.21098-.329505.49713-.329505.7955v8.25c0 .2984.118526.5845.329505.7955.210978.211.497126.3295.795495.3295h8.25c.29837 0 .58452-.1185.7955-.3295.211-.211.3295-.4971.3295-.7955v-3c0-.09946-.0395-.19484-.1098-.26517-.0704-.07032-.1657-.10983-.2652-.10983zm1.3125-7.5h-3c-.50086 0-.75117.607266-.39844.960938l.83742.837422-5.71242 5.71031c-.05244.05226-.09405.11436-.12244.18273s-.043.14168-.043.21571.01461.14734.043.21571.07.13047.12244.18273l.53133.53039c.05226.05244.11435.09405.18273.12244.06837.02839.14168.043.21571.043s.14734-.01461.21571-.043.13047-.07.18273-.12244l5.70963-5.71125.8372.83625c.3515.35156.9609.10547.9609-.39844v-3c0-.149184-.0593-.292258-.1648-.397748-.1054-.1054888-.2485-.164752-.3977-.164752z" fill="#3f3f3f"/></svg>