<svg width="8" height="14" viewBox="0 0 8 14" fill="none" xmlns="http://www.w3.org/2000/svg">
<path d="M3.125 8.66633V12.9508L3.72711 13.8537C3.85699 14.0484 4.14328 14.0484 4.27316 13.8537L4.875 12.9508V8.66633C4.5909 8.71883 4.29914 8.75 4 8.75C3.70086 8.75 3.4091 8.71883 3.125 8.66633ZM4 0C1.82535 0 0.0625 1.76285 0.0625 3.9375C0.0625 6.11215 1.82535 7.875 4 7.875C6.17465 7.875 7.9375 6.11215 7.9375 3.9375C7.9375 1.76285 6.17465 0 4 0ZM4 2.07812C2.97461 2.07812 2.14062 2.91211 2.14062 3.9375C2.14062 4.11852 1.99352 4.26562 1.8125 4.26562C1.63148 4.26562 1.48438 4.11852 1.48438 3.9375C1.48438 2.55035 2.61312 1.42187 4 1.42187C4.18102 1.42187 4.32812 1.56898 4.32812 1.75C4.32812 1.93102 4.18102 2.07812 4 2.07812Z" fill="#3F3F3F"/>
</svg>
